<svg width="573" height="463" viewBox="0 0 573 463" fill="none" xmlns="http://www.w3.org/2000/svg">
<path opacity="0.19" d="M527.642 107.712C524.509 85.082 503.624 69.276 480.996 72.409C478.652 72.733 476.387 73.258 474.203 73.946C467.119 75.212 387.621 101.514 352.799 59.014C335.666 38.976 309.016 27.801 280.963 31.683C256.287 35.099 235.808 49.428 223.718 69.121L196.934 107.457C184.389 126.206 166.396 140.657 145.382 148.862L83.696 172.95C79.565 174.302 75.549 175.878 71.653 177.653L71.505 177.711L71.507 177.719C25.572 198.713 -3.20301 247.98 4.07699 300.575C12.967 364.791 72.229 409.639 136.445 400.753C142.828 399.869 149.015 398.482 154.981 396.647L217.976 382.689C252.476 375.045 288.555 384.402 315.002 407.837C322.096 414.125 330.59 423.335 331.754 425.15C331.764 425.164 331.813 425.16 331.834 425.166C353.047 451.562 387.186 466.479 423.168 461.498C477.645 453.957 515.691 403.683 508.15 349.206C508.046 348.464 488.888 239.897 488.888 239.897C488.861 239.739 488.833 239.582 488.808 239.422C484.488 213.468 489.802 186.824 503.527 164.376L521.134 136.235C526.515 128.13 529.082 118.108 527.642 107.712Z" fill="#BEBEBE"/>
<path d="M35.354 319.166C33.374 340.19 48.813 358.84 69.838 360.819C72.015 361.024 74.164 361.033 76.275 360.878C82.917 361.239 160.021 354.435 182.338 400.055C193.504 421.716 215.111 437.422 241.175 439.877C264.101 442.036 285.564 433.486 300.619 418.331L332.846 389.518C348.11 375.311 367.362 366.123 388.008 363.196L448.615 354.604C452.619 354.264 456.564 353.698 460.447 352.926L460.593 352.905L460.591 352.897C506.372 343.749 542.708 305.524 547.31 256.66C552.929 196.999 509.121 144.08 449.458 138.462C443.528 137.903 437.667 137.841 431.911 138.226L372.272 137.426C339.612 136.987 309.133 120.92 290.307 94.225C285.258 87.063 279.569 76.976 278.907 75.096C278.903 75.082 278.858 75.075 278.839 75.064C265.351 46.818 237.798 26.158 204.369 23.009C153.757 18.242 108.864 55.407 104.098 106.019C104.033 106.709 98.25 208.451 98.25 208.451C98.24 208.598 98.23 208.746 98.221 208.894C96.606 233.162 86.173 256.006 69.066 273.294L47.256 294.88C40.697 301.034 36.263 309.508 35.354 319.166Z" fill="#FFCF97"/>
<path d="M13.8 325.851C11.656 348.615 28.372 368.804 51.135 370.95C53.492 371.172 55.819 371.181 58.104 371.013C65.295 371.404 148.775 364.034 172.939 413.428C185.028 436.88 208.421 453.885 236.64 456.543C261.462 458.88 284.703 449.624 300.999 433.217L335.892 402.022C352.415 386.638 373.261 376.693 395.615 373.523L461.236 364.219C465.57 363.853 469.843 363.238 474.047 362.406L474.205 362.383V362.374C523.769 352.47 563.111 311.085 568.094 258.178C574.176 193.584 526.744 136.289 462.151 130.206C455.731 129.601 449.385 129.534 443.153 129.951L378.585 129.084C343.224 128.609 310.226 111.213 289.843 82.312C284.374 74.558 278.214 63.637 277.499 61.602C277.493 61.586 277.446 61.58 277.425 61.567C262.821 30.986 232.99 8.616 196.796 5.208C141.999 0.0479993 93.394 40.286 88.233 95.083C88.162 95.831 81.902 205.985 81.902 205.985C81.891 206.145 81.881 206.305 81.87 206.465C80.122 232.739 68.826 257.472 50.304 276.19L26.688 299.56C19.584 306.22 14.785 315.394 13.8 325.851Z" stroke="#FF8A00" stroke-width="8" stroke-miterlimit="10" stroke-linecap="round" stroke-dasharray="300 200"/>
<path d="M61.848 378.491C64.894 399.387 84.304 413.858 105.201 410.812C107.366 410.497 109.455 409.997 111.47 409.345C118.01 408.128 191.319 383.287 223.789 422.338C239.759 440.746 264.466 450.901 290.371 447.123C313.158 443.802 331.992 430.421 343.037 412.137L367.539 376.524C379.012 359.11 395.547 345.631 414.916 337.908L471.775 315.231C475.584 313.955 479.285 312.471 482.875 310.805L483.012 310.75L483.01 310.741C525.328 291.031 551.6 245.299 544.52 196.731C535.875 137.433 480.799 96.371 421.5 105.015C415.605 105.874 409.896 107.199 404.395 108.934L346.258 122.254C314.418 129.549 281.006 121.141 256.406 99.654C249.806 93.89 241.893 85.433 240.805 83.763C240.796 83.75 240.753 83.754 240.73 83.749C220.946 59.492 189.291 45.93 156.064 50.773C105.76 58.106 70.925 104.831 78.259 155.135C78.359 155.822 96.791 256.045 96.791 256.045C96.817 256.191 96.842 256.337 96.868 256.483C101.036 280.444 96.299 305.108 83.764 325.951L67.674 352.08C62.753 359.61 60.449 368.892 61.848 378.491Z" fill="#FF8A00"/>
<path opacity="0.96" d="M507.52 396.944L552.514 407.411L555.043 430.249C555.043 430.249 506.784 396.812 507.52 396.944Z" fill="#FFCF97"/>
<path opacity="0.96" d="M501.047 399.381L522.813 440.131L507.295 457.078C507.295 457.078 500.663 398.739 501.047 399.381Z" fill="#FFCF97"/>
<path opacity="0.96" d="M502.022 383.396L525.637 373.666L534.106 383.135C534.106 383.133 501.647 383.569 502.022 383.396Z" fill="#FFCF97"/>
<path d="M490.41 169.151C490.527 167.047 491.566 165.692 493.672 165.395C495.608 165.121 497.563 166.853 497.516 168.805C497.463 170.929 496.268 172.308 494.153 172.414C492.033 172.521 490.81 171.234 490.41 169.151Z" fill="white"/>
<path d="M502.488 86.71C504.627 86.828 506.037 87.852 506.215 89.995C506.393 92.133 505.221 93.473 503.11 93.801C501.1 94.113 499.297 92.521 499.255 90.463C499.208 88.266 500.498 87.166 502.488 86.71Z" fill="white"/>
<path d="M522.361 101.941C522.429 104.176 521.347 105.487 519.279 105.87C517.328 106.231 515.404 104.609 515.359 102.593C515.31 100.452 516.433 99.033 518.556 98.87C520.654 98.709 521.96 99.897 522.361 101.941Z" fill="white"/>
<path d="M440.818 131.675C440.828 129.839 441.779 128.377 443.963 128.138C446.131 127.901 447.557 129.026 447.799 131.196C448.041 133.37 446.861 134.71 444.733 135.067C442.833 135.386 441.064 133.914 440.818 131.675Z" fill="white"/>
<path d="M431.792 119.292C431.667 121.398 430.671 122.843 428.476 122.984C426.294 123.124 424.937 121.894 424.779 119.737C424.619 117.56 425.828 116.196 428.004 116.041C430.199 115.886 431.392 117.16 431.792 119.292Z" fill="white"/>
<path d="M509.681 177.429C511.769 177.474 513.232 178.356 513.511 180.541C513.79 182.717 512.657 184.053 510.589 184.487C508.63 184.898 506.675 183.337 506.568 181.317C506.451 179.154 507.626 177.93 509.681 177.429Z" fill="white"/>
<path d="M471.082 92.06C473.373 92.23 474.812 93.276 474.902 95.449C474.994 97.588 473.793 98.978 471.593 99.083C469.407 99.187 468.089 97.976 467.96 95.796C467.828 93.57 469.208 92.493 471.082 92.06Z" fill="white"/>
<path d="M463.697 171.773C465.765 171.883 467.244 172.768 467.453 174.973C467.66 177.135 466.582 178.468 464.43 178.784C462.336 179.092 460.528 177.643 460.479 175.579C460.429 173.431 461.662 172.232 463.697 171.773Z" fill="white"/>
<path d="M397.892 122.369C400.038 122.473 401.519 123.377 401.722 125.599C401.921 127.791 400.806 129.137 398.611 129.373C396.365 129.616 395.054 128.356 394.802 126.268C394.537 124.077 395.896 122.895 397.892 122.369Z" fill="white"/>
<path d="M521.007 136.456C519.194 136.417 517.841 135.423 517.599 133.221C517.386 131.305 518.915 129.43 520.777 129.408C522.92 129.383 524.281 130.538 524.599 132.652C524.878 134.516 523.289 136.258 521.007 136.456Z" fill="white"/>
<path d="M469.185 61.525C470.953 61.525 472.365 62.398 472.667 64.6C472.956 66.707 471.548 68.462 469.454 68.542C467.278 68.624 466.009 67.413 465.679 65.352C465.386 63.513 466.951 61.757 469.185 61.525Z" fill="white"/>
<path d="M538.402 114.159C538.568 116.121 537.146 117.837 535.228 117.99C533.353 118.14 531.531 116.607 531.374 114.75C531.218 112.895 532.759 111.081 534.634 110.909C536.541 110.734 538.238 112.199 538.402 114.159Z" fill="white"/>
<path d="M412.14 103.907C413.992 103.894 415.314 105.022 415.679 107.097C416.011 108.964 414.445 110.796 412.491 110.907C410.321 111.031 408.966 109.982 408.7 107.772C408.458 105.745 409.802 104.13 412.14 103.907Z" fill="white"/>
<path d="M477.884 160.397C476.062 160.267 474.589 159.343 474.421 157.114C474.251 154.9 475.484 153.529 477.603 153.335C479.777 153.136 481.078 154.474 481.417 156.557C481.71 158.36 480.025 160.225 477.884 160.397Z" fill="white"/>
<path d="M451.451 162.975C451.611 164.891 450.144 166.574 448.181 166.727C446.224 166.881 444.501 165.439 444.367 163.533C444.232 161.657 445.775 159.84 447.629 159.693C449.482 159.545 451.294 161.102 451.451 162.975Z" fill="white"/>
<path d="M510.667 150.806C510.708 153.241 509.743 154.649 507.54 154.883C505.343 155.115 503.938 153.972 503.704 151.82C503.47 149.659 504.628 148.254 506.802 148.001C509.013 147.744 510.185 149.02 510.667 150.806Z" fill="white"/>
<path d="M481.828 77.462C481.801 75.355 482.726 73.916 484.935 73.671C487.152 73.425 488.496 74.609 488.734 76.754C488.974 78.91 487.871 80.371 485.687 80.589C483.544 80.803 482.212 79.677 481.828 77.462Z" fill="white"/>
<path d="M471.458 127.439C471.583 125.279 472.665 123.992 474.849 123.821C476.792 123.669 478.585 125.233 478.529 127.123C478.466 129.236 477.349 130.645 475.148 130.742C472.951 130.838 471.785 129.563 471.458 127.439Z" fill="white"/>
<path d="M430.31 146.539C432.437 146.66 433.812 147.705 433.912 149.91C434.012 152.095 432.832 153.419 430.637 153.549C428.399 153.681 427.151 152.387 427.01 150.255C426.865 148.054 428.162 146.875 430.31 146.539Z" fill="white"/>
<path d="M441.083 98.585C443.218 98.523 444.677 99.469 444.897 101.66C445.112 103.792 444.083 105.195 441.836 105.442C439.606 105.688 438.238 104.59 437.996 102.447C437.755 100.304 438.902 98.98 441.083 98.585Z" fill="white"/>
<path d="M435.753 71.701C435.773 69.418 436.915 68.087 439.071 67.979C441.241 67.87 442.579 69.118 442.692 71.3C442.805 73.497 441.588 74.797 439.403 74.919C437.177 75.045 436.037 73.765 435.753 71.701Z" fill="white"/>
<path d="M454.875 80.037C457.027 79.908 458.846 81.422 458.826 83.316C458.805 85.413 457.816 86.893 455.551 87.006C453.346 87.117 452.061 85.954 451.891 83.756C451.714 81.498 453.033 80.406 454.875 80.037Z" fill="white"/>
<path d="M428.884 89.664C428.794 91.779 427.929 93.189 425.65 93.372C423.396 93.553 422.095 92.4 421.894 90.27C421.693 88.109 422.871 86.734 425.052 86.542C427.242 86.35 428.47 87.547 428.884 89.664Z" fill="white"/>
<path d="M413.009 168.791C413.179 166.649 414.175 165.263 416.404 165.152C418.629 165.041 419.967 166.312 420.078 168.412C420.191 170.515 419.027 171.889 416.76 172.003C414.496 172.118 413.414 170.85 413.009 168.791Z" fill="white"/>
<path d="M483.554 187.745C483.534 189.466 482.437 190.765 480.245 190.876C478.015 190.989 476.829 189.723 476.657 187.552C476.501 185.581 478.024 183.808 479.934 183.884C482.013 183.967 483.427 184.969 483.554 187.745Z" fill="white"/>
<path d="M465.273 144.833C465.218 146.741 464.168 148.146 461.982 148.259C459.812 148.372 458.523 147.134 458.32 144.96C458.136 143.002 459.668 141.305 461.584 141.201C463.482 141.099 465.144 142.625 465.273 144.833Z" fill="white"/>
<path d="M410.919 138.305C410.913 135.944 412.091 134.627 414.218 134.526C416.349 134.425 417.722 135.613 417.802 137.845C417.88 140.032 416.755 141.351 414.54 141.47C412.298 141.589 411.212 140.282 410.919 138.305Z" fill="white"/>
<path d="M457.578 110.661C459.463 110.655 460.84 111.636 460.984 113.868C461.13 116.072 459.994 117.332 457.785 117.538C455.484 117.752 454.236 116.42 454.07 114.368C453.902 112.28 455.033 110.88 457.578 110.661Z" fill="white"/>
<path d="M405.753 78.101C405.821 75.864 406.935 74.575 409.11 74.451C411.333 74.325 412.657 75.64 412.762 77.728C412.871 79.832 411.678 81.203 409.432 81.316C407.173 81.429 406.089 80.16 405.753 78.101Z" fill="white"/>
<path d="M487.521 139.589C487.666 137.444 488.699 136.107 490.884 135.897C492.822 135.712 494.616 137.24 494.611 139.15C494.603 141.282 493.509 142.69 491.3 142.819C489.099 142.948 487.927 141.671 487.521 139.589Z" fill="white"/>
<path d="M485.466 109.252C485.296 106.784 486.546 105.457 488.607 105.3C490.664 105.145 492.146 106.252 492.304 108.52C492.458 110.747 491.325 112.047 489.154 112.238C486.937 112.433 485.744 111.214 485.466 109.252Z" fill="white"/>
<path d="M399.794 153.109C402.349 152.854 403.595 154.057 404.001 156.103C404.376 157.997 402.896 159.702 400.888 159.901C398.677 160.12 397.286 159.097 397.036 156.914C396.789 154.737 397.953 153.461 399.794 153.109Z" fill="white"/>
<path d="M519.853 163.99C519.761 161.566 520.845 160.239 523.021 160.075C525.183 159.912 526.519 161.017 526.703 163.249C526.887 165.505 525.672 166.749 523.549 166.96C521.332 167.182 520.162 165.922 519.853 163.99Z" fill="white"/>
<path d="M501.484 121.264C501.457 118.86 502.66 117.494 504.744 117.362C506.83 117.231 508.299 118.434 508.408 120.646C508.515 122.803 507.369 124.177 505.172 124.33C502.939 124.485 501.82 123.17 501.484 121.264Z" fill="white"/>
<path d="M449.767 190.331C452.107 190.404 453.427 191.457 453.542 193.665C453.657 195.881 452.46 197.174 450.286 197.282C448.114 197.39 446.845 196.233 446.696 194.004C446.544 191.704 447.902 190.718 449.767 190.331Z" fill="white"/>
<path d="M536.802 148.521C535.175 148.437 533.853 147.39 533.654 145.202C533.476 143.297 535.068 141.443 536.949 141.501C538.709 141.556 540.435 142.154 540.265 144.333C540.125 146.165 540.158 148.436 536.802 148.521Z" fill="white"/>
<path d="M430.542 181.931C430.62 179.767 431.655 178.419 433.866 178.327C436.052 178.236 437.3 179.385 437.43 181.609C437.567 183.891 436.307 185.061 434.182 185.202C431.968 185.349 430.824 184.07 430.542 181.931Z" fill="white"/>
<path d="M399.554 95.438C399.495 97.354 398.396 98.906 396.269 98.772C395.093 98.698 393.562 97.639 392.972 96.587C392.31 95.409 395.007 91.838 396.181 91.832C397.931 91.823 399.435 93.328 399.554 95.438Z" fill="white"/>
<path d="M455.087 50.632C455.398 51.012 456.343 51.677 456.554 52.524C457.036 54.485 455.39 56.386 453.335 56.463C451.28 56.54 450.034 55.414 449.632 53.48C449.251 51.654 450.171 51.139 455.087 50.632Z" fill="white"/>
<path d="M519.826 73.397C517.998 75.658 516.125 76 514.336 74.384C512.547 72.767 512.711 70.844 514.74 68.719C516.4 70.246 518.035 71.75 519.826 73.397Z" fill="white"/>
<path d="M496.218 56.951C498.314 58 500.312 59.001 502.415 60.055C501.009 62.242 499.263 62.616 497.472 61.641C495.798 60.73 495.095 59.169 496.218 56.951Z" fill="white"/>
<path d="M469.666 205.615C467.283 205.804 465.119 205.976 462.861 206.155C462.711 203.943 463.757 202.808 465.584 202.513C467.687 202.171 469.113 203.093 469.666 205.615Z" fill="white"/>
<path d="M492.328 199.715C493.101 198.595 493.652 196.944 494.709 196.496C495.906 195.991 497.561 196.566 499.016 196.672C499.039 197.05 499.067 197.429 499.092 197.807C497.153 198.69 495.213 199.572 493.274 200.455C492.958 200.208 492.642 199.961 492.328 199.715Z" fill="white"/>
<g opacity="0.9">
<path d="M145.895 423.107C147.459 423.107 148.727 421.839 148.727 420.275C148.727 418.711 147.459 417.443 145.895 417.443C144.331 417.443 143.063 418.711 143.063 420.275C143.063 421.839 144.331 423.107 145.895 423.107Z" fill="white"/>
<path d="M137.892 406.25C139.456 406.25 140.724 404.982 140.724 403.418C140.724 401.854 139.456 400.586 137.892 400.586C136.328 400.586 135.06 401.854 135.06 403.418C135.06 404.982 136.328 406.25 137.892 406.25Z" fill="white"/>
<path d="M129.889 389.394C131.453 389.394 132.721 388.126 132.721 386.562C132.721 384.998 131.453 383.73 129.889 383.73C128.325 383.73 127.057 384.998 127.057 386.562C127.057 388.126 128.325 389.394 129.889 389.394Z" fill="white"/>
<path d="M121.886 372.537C123.45 372.537 124.718 371.269 124.718 369.705C124.718 368.141 123.45 366.873 121.886 366.873C120.322 366.873 119.054 368.141 119.054 369.705C119.054 371.269 120.322 372.537 121.886 372.537Z" fill="white"/>
<path d="M113.884 355.679C115.448 355.679 116.716 354.411 116.716 352.847C116.716 351.283 115.448 350.015 113.884 350.015C112.32 350.015 111.052 351.283 111.052 352.847C111.052 354.411 112.32 355.679 113.884 355.679Z" fill="white"/>
<path d="M160.559 416.145C162.123 416.145 163.391 414.877 163.391 413.313C163.391 411.749 162.123 410.481 160.559 410.481C158.995 410.481 157.727 411.749 157.727 413.313C157.727 414.877 158.995 416.145 160.559 416.145Z" fill="white"/>
<path d="M152.556 399.289C154.12 399.289 155.388 398.021 155.388 396.457C155.388 394.893 154.12 393.625 152.556 393.625C150.992 393.625 149.724 394.893 149.724 396.457C149.724 398.021 150.992 399.289 152.556 399.289Z" fill="white"/>
<path d="M144.554 382.433C146.118 382.433 147.386 381.165 147.386 379.601C147.386 378.037 146.118 376.769 144.554 376.769C142.99 376.769 141.722 378.037 141.722 379.601C141.722 381.165 142.99 382.433 144.554 382.433Z" fill="white"/>
<path d="M136.551 365.575C138.115 365.575 139.383 364.307 139.383 362.743C139.383 361.179 138.115 359.911 136.551 359.911C134.987 359.911 133.719 361.179 133.719 362.743C133.719 364.307 134.987 365.575 136.551 365.575Z" fill="white"/>
<path d="M128.548 348.717C130.112 348.717 131.38 347.449 131.38 345.885C131.38 344.321 130.112 343.053 128.548 343.053C126.984 343.053 125.716 344.321 125.716 345.885C125.716 347.449 126.984 348.717 128.548 348.717Z" fill="white"/>
<path d="M175.223 409.184C176.787 409.184 178.055 407.916 178.055 406.352C178.055 404.788 176.787 403.52 175.223 403.52C173.659 403.52 172.391 404.788 172.391 406.352C172.391 407.916 173.659 409.184 175.223 409.184Z" fill="white"/>
<path d="M167.22 392.327C168.784 392.327 170.052 391.059 170.052 389.495C170.052 387.931 168.784 386.663 167.22 386.663C165.656 386.663 164.388 387.931 164.388 389.495C164.388 391.059 165.656 392.327 167.22 392.327Z" fill="white"/>
<path d="M159.218 375.47C160.782 375.47 162.05 374.202 162.05 372.638C162.05 371.074 160.782 369.806 159.218 369.806C157.654 369.806 156.386 371.074 156.386 372.638C156.386 374.202 157.654 375.47 159.218 375.47Z" fill="white"/>
<path d="M151.215 358.613C152.779 358.613 154.047 357.345 154.047 355.781C154.047 354.217 152.779 352.949 151.215 352.949C149.651 352.949 148.383 354.217 148.383 355.781C148.383 357.345 149.651 358.613 151.215 358.613Z" fill="white"/>
<path d="M143.212 341.756C144.776 341.756 146.044 340.488 146.044 338.924C146.044 337.36 144.776 336.092 143.212 336.092C141.648 336.092 140.38 337.36 140.38 338.924C140.38 340.488 141.648 341.756 143.212 341.756Z" fill="white"/>
<path d="M189.887 402.222C191.451 402.222 192.719 400.954 192.719 399.39C192.719 397.826 191.451 396.558 189.887 396.558C188.323 396.558 187.055 397.826 187.055 399.39C187.055 400.954 188.323 402.222 189.887 402.222Z" fill="white"/>
<path d="M181.884 385.365C183.448 385.365 184.716 384.097 184.716 382.533C184.716 380.969 183.448 379.701 181.884 379.701C180.32 379.701 179.052 380.969 179.052 382.533C179.052 384.097 180.32 385.365 181.884 385.365Z" fill="white"/>
<path d="M173.882 368.508C175.446 368.508 176.714 367.24 176.714 365.676C176.714 364.112 175.446 362.844 173.882 362.844C172.318 362.844 171.05 364.112 171.05 365.676C171.05 367.24 172.318 368.508 173.882 368.508Z" fill="white"/>
<path d="M165.879 351.651C167.443 351.651 168.711 350.383 168.711 348.819C168.711 347.255 167.443 345.987 165.879 345.987C164.315 345.987 163.047 347.255 163.047 348.819C163.047 350.383 164.315 351.651 165.879 351.651Z" fill="white"/>
<path d="M157.876 334.794C159.44 334.794 160.708 333.526 160.708 331.962C160.708 330.398 159.44 329.13 157.876 329.13C156.312 329.13 155.044 330.398 155.044 331.962C155.044 333.526 156.312 334.794 157.876 334.794Z" fill="white"/>
<path d="M204.551 395.26C206.115 395.26 207.383 393.992 207.383 392.428C207.383 390.864 206.115 389.596 204.551 389.596C202.987 389.596 201.719 390.864 201.719 392.428C201.719 393.992 202.987 395.26 204.551 395.26Z" fill="white"/>
<path d="M196.549 378.403C198.113 378.403 199.381 377.135 199.381 375.571C199.381 374.007 198.113 372.739 196.549 372.739C194.985 372.739 193.717 374.007 193.717 375.571C193.717 377.135 194.985 378.403 196.549 378.403Z" fill="white"/>
<path d="M188.546 361.546C190.11 361.546 191.378 360.278 191.378 358.714C191.378 357.15 190.11 355.882 188.546 355.882C186.982 355.882 185.714 357.15 185.714 358.714C185.714 360.278 186.982 361.546 188.546 361.546Z" fill="white"/>
<path d="M180.543 344.69C182.107 344.69 183.375 343.422 183.375 341.858C183.375 340.294 182.107 339.026 180.543 339.026C178.979 339.026 177.711 340.294 177.711 341.858C177.711 343.422 178.979 344.69 180.543 344.69Z" fill="white"/>
<path d="M172.54 327.832C174.104 327.832 175.372 326.564 175.372 325C175.372 323.436 174.104 322.168 172.54 322.168C170.976 322.168 169.708 323.436 169.708 325C169.708 326.564 170.976 327.832 172.54 327.832Z" fill="white"/>
</g>
<path d="M23.514 420.105C36.3552 420.105 46.765 409.695 46.765 396.854C46.765 384.013 36.3552 373.603 23.514 373.603C10.6728 373.603 0.263 384.013 0.263 396.854C0.263 409.695 10.6728 420.105 23.514 420.105Z" fill="#FF8A00"/>
<path opacity="0.96" d="M88.307 84.457L35.183 62.997L36.466 34.529C36.466 34.529 50.857 48.241 64.476 61.294C76.923 73.223 88.725 84.602 88.307 84.457Z" fill="#FFCF97"/>
<path opacity="0.96" d="M96.704 82.712L77.855 28.607L100.118 10.819C100.118 10.819 97.053 83.572 96.704 82.712Z" fill="#FFCF97"/>
<path opacity="0.96" d="M92.444 102.114L61.64 109.505L53.079 96.277C53.079 96.277 92.936 101.969 92.444 102.114Z" fill="#FFCF97"/>
</svg>
