<svg width="129" height="56" viewBox="0 0 129 56" fill="none" xmlns="http://www.w3.org/2000/svg">
<g clip-path="url(#clip0_3_10)">
<path d="M101.144 0.31223C102.992 -0.782222 105.165 -1.21948 107.25 -0.895623C109.575 -0.554573 111.761 0.740051 113.302 2.65748C114.772 4.46324 115.655 6.8162 115.762 9.22247C115.882 11.5995 115.254 14.0118 113.997 15.9644C113.193 17.2204 112.143 18.2934 110.929 19.0725C110.816 19.1481 110.678 19.2177 110.651 19.375C109.839 21.818 107.862 23.7501 105.54 24.3799C104.856 24.5748 104.147 24.6444 103.44 24.6401C101.892 24.6393 100.344 24.6384 98.7955 24.6401C98.7923 23.3798 98.7944 22.1197 98.7944 20.8594C100.446 20.8577 102.098 20.862 103.75 20.8577C104.923 20.8491 106.074 20.2314 106.796 19.2281C107.41 18.4007 107.697 17.3277 107.66 16.2728C102.949 16.2711 98.2375 16.272 93.5257 16.2728C93.5067 21.2546 93.4884 26.2372 93.4694 31.2189C100.491 31.2206 107.511 31.2189 114.532 31.2197C115.268 31.2129 116.026 31.2807 116.732 31.0102C118.277 30.4878 119.423 28.8504 119.47 27.0954C119.502 25.2862 119.51 23.4769 119.53 21.6678C117.687 21.6651 115.843 21.6686 114 21.6661C113.999 20.4093 114 19.1524 114 17.8948C116.999 17.8896 120.001 17.8938 123 17.893C122.986 20.3869 122.969 22.8807 122.955 25.3738C122.935 26.4692 123.002 27.5791 122.771 28.6546C122.391 30.5556 121.348 32.2884 119.899 33.4336C118.632 34.4532 117.057 35.0048 115.479 34.9987C106.986 34.9997 98.4925 35.0014 90 34.9979C90.0198 27.4965 90.0365 19.9943 90.0562 12.4921C92.1287 12.4912 94.2005 12.4929 96.2721 12.4921C95.7566 10.2739 95.8833 7.87979 96.6776 5.75785C97.5234 3.45212 99.1338 1.49258 101.144 0.31223ZM102.399 3.88852C101.241 4.6866 100.335 5.8996 99.8497 7.29041C99.265 8.95185 99.2853 10.8598 99.9298 12.4972C103.66 12.4852 107.392 12.4947 111.123 12.4929C111.123 12.9456 111.123 13.3984 111.123 13.8519C112.102 12.3538 112.506 10.432 112.22 8.62197C111.966 6.93819 111.117 5.37127 109.885 4.31033C108.828 3.38769 107.495 2.84819 106.14 2.78634C104.827 2.72363 103.502 3.11708 102.399 3.88852Z" fill="white"/>
<path d="M17.1592 16.0952C18.4819 16.0952 19.5112 16.4845 20.2472 17.2632C20.9832 18.0312 21.3512 19.1458 21.3512 20.6072V27.4872H18.7592V20.6872C18.7592 19.8978 18.5512 19.3058 18.1352 18.9112C17.7299 18.5058 17.1912 18.3032 16.5192 18.3032C15.7832 18.3032 15.1966 18.5165 14.7592 18.9432C14.3219 19.3592 14.1032 19.9938 14.1032 20.8472V27.4872H11.5112V20.6872C11.5112 19.8978 11.3192 19.3058 10.9352 18.9112C10.5512 18.5058 10.0286 18.3032 9.36724 18.3032C8.64191 18.3032 8.06058 18.5165 7.62324 18.9432C7.18591 19.3592 6.96724 19.9938 6.96724 20.8472V27.4872H4.37524V16.2872H6.88724V17.6632C7.22858 17.1618 7.68191 16.7778 8.24724 16.5112C8.81258 16.2338 9.46324 16.0952 10.1992 16.0952C10.9672 16.0952 11.6392 16.2392 12.2152 16.5272C12.7912 16.8045 13.2339 17.2098 13.5432 17.7432C13.9272 17.2098 14.4286 16.8045 15.0472 16.5272C15.6766 16.2392 16.3806 16.0952 17.1592 16.0952ZM32.4665 18.8792V27.4872H30.0825V26.4952C29.4638 27.2418 28.5678 27.6152 27.3945 27.6152C26.5838 27.6152 25.8478 27.4338 25.1865 27.0712C24.5358 26.7085 24.0238 26.1912 23.6505 25.5192C23.2772 24.8472 23.0905 24.0685 23.0905 23.1832C23.0905 22.2978 23.2772 21.5192 23.6505 20.8472C24.0238 20.1752 24.5358 19.6578 25.1865 19.2952C25.8478 18.9325 26.5838 18.7512 27.3945 18.7512C28.4932 18.7512 29.3518 19.0978 29.9705 19.7912V18.8792H32.4665ZM27.8265 25.5672C28.4558 25.5672 28.9785 25.3538 29.3945 24.9272C29.8105 24.4898 30.0185 23.9085 30.0185 23.1832C30.0185 22.4578 29.8105 21.8818 29.3945 21.4552C28.9785 21.0178 28.4558 20.7992 27.8265 20.7992C27.1865 20.7992 26.6585 21.0178 26.2425 21.4552C25.8265 21.8818 25.6185 22.4578 25.6185 23.1832C25.6185 23.9085 25.8265 24.4898 26.2425 24.9272C26.6585 25.3538 27.1865 25.5672 27.8265 25.5672ZM37.1614 20.0152C37.46 19.5992 37.86 19.2845 38.3614 19.0712C38.8734 18.8578 39.46 18.7512 40.1214 18.7512V21.0552C39.844 21.0338 39.6574 21.0232 39.5614 21.0232C38.8467 21.0232 38.2867 21.2258 37.8814 21.6312C37.476 22.0258 37.2734 22.6232 37.2734 23.4232V27.4872H34.7774V18.8792H37.1614V20.0152ZM45.3015 24.1112L44.1015 25.2952V27.4872H41.6055V15.6152H44.1015V22.3352L47.7495 18.8792H50.7255L47.1415 22.5272L51.0455 27.4872H48.0215L45.3015 24.1112ZM56.129 25.6152C56.577 25.6152 56.9717 25.5512 57.313 25.4232C57.665 25.2845 57.9903 25.0712 58.289 24.7832L59.617 26.2232C58.8063 27.1512 57.6223 27.6152 56.065 27.6152C55.0943 27.6152 54.2357 27.4285 53.489 27.0552C52.7423 26.6712 52.1663 26.1432 51.761 25.4712C51.3557 24.7992 51.153 24.0365 51.153 23.1832C51.153 22.3405 51.3503 21.5832 51.745 20.9112C52.1503 20.2285 52.6997 19.7005 53.393 19.3272C54.097 18.9432 54.8863 18.7512 55.761 18.7512C56.5823 18.7512 57.329 18.9272 58.001 19.2792C58.673 19.6205 59.2063 20.1218 59.601 20.7832C60.0063 21.4338 60.209 22.2072 60.209 23.1032L53.841 24.3352C54.0223 24.7618 54.305 25.0818 54.689 25.2952C55.0837 25.5085 55.5637 25.6152 56.129 25.6152ZM55.761 20.6392C55.1317 20.6392 54.6197 20.8418 54.225 21.2472C53.8303 21.6525 53.6223 22.2125 53.601 22.9272L57.793 22.1112C57.6757 21.6632 57.4357 21.3058 57.073 21.0392C56.7103 20.7725 56.273 20.6392 55.761 20.6392ZM67.0707 27.0712C66.8254 27.2525 66.5214 27.3912 66.1587 27.4872C65.8067 27.5725 65.4387 27.6152 65.0547 27.6152C64.0201 27.6152 63.2254 27.3538 62.6707 26.8312C62.1161 26.3085 61.8387 25.5405 61.8387 24.5272V16.9752H64.3347V19.0712H66.4627V20.9912H64.3347V24.4952C64.3347 24.8578 64.4254 25.1405 64.6067 25.3432C64.7881 25.5352 65.0494 25.6312 65.3907 25.6312C65.7747 25.6312 66.1161 25.5245 66.4147 25.3112L67.0707 27.0712ZM71.5685 27.6152C70.5978 27.6152 69.8405 27.3592 69.2965 26.8472C68.7525 26.3245 68.4805 25.5885 68.4805 24.6392V15.6152H70.9765V24.4952C70.9765 24.8578 71.0672 25.1405 71.2485 25.3432C71.4405 25.5352 71.7072 25.6312 72.0485 25.6312C72.1765 25.6312 72.3045 25.6152 72.4325 25.5832C72.5712 25.5512 72.6778 25.5138 72.7525 25.4712L72.8645 27.4072C72.4485 27.5458 72.0165 27.6152 71.5685 27.6152ZM82.7619 18.8792V26.0472C82.7619 27.6258 82.3619 28.7992 81.5619 29.5672C80.7619 30.3352 79.5992 30.7192 78.0739 30.7192C77.2632 30.7192 76.4952 30.6178 75.7699 30.4152C75.0552 30.2125 74.4525 29.9192 73.9619 29.5352L74.9539 27.7432C75.3165 28.0418 75.7592 28.2765 76.2819 28.4472C76.8045 28.6178 77.3325 28.7032 77.8659 28.7032C78.6979 28.7032 79.3059 28.5112 79.6899 28.1272C80.0739 27.7432 80.2659 27.1565 80.2659 26.3672V26.0792C79.9459 26.3992 79.5672 26.6445 79.1299 26.8152C78.6925 26.9858 78.2232 27.0712 77.7219 27.0712C76.5912 27.0712 75.6952 26.7512 75.0339 26.1112C74.3725 25.4605 74.0419 24.4898 74.0419 23.1992V18.8792H76.5379V22.8312C76.5379 24.2285 77.1192 24.9272 78.2819 24.9272C78.8792 24.9272 79.3592 24.7352 79.7219 24.3512C80.0845 23.9565 80.2659 23.3752 80.2659 22.6072V18.8792H82.7619Z" fill="#3A4654"/>
</g>
<defs>
<clipPath id="clip0_3_10">
<rect width="129" height="56" fill="white"/>
</clipPath>
</defs>
</svg>
