<svg width="127" height="39" viewBox="0 0 127 39" fill="none" xmlns="http://www.w3.org/2000/svg">
<path d="M102.954 4.50473C104.686 3.55918 106.722 3.18141 108.676 3.46121C110.855 3.75586 112.904 4.87434 114.348 6.5309C115.726 8.09098 116.553 10.1238 116.654 12.2027C116.766 14.2563 116.178 16.3404 115 18.0274C114.246 19.1125 113.262 20.0395 112.124 20.7126C112.018 20.7779 111.889 20.838 111.864 20.9739C111.103 23.0846 109.25 24.7538 107.074 25.2979C106.433 25.4663 105.768 25.5264 105.106 25.5227C103.655 25.522 102.204 25.5212 100.753 25.5227C100.75 24.4339 100.752 23.3452 100.752 22.2564C102.3 22.2549 103.848 22.2586 105.396 22.2549C106.496 22.2475 107.574 21.7138 108.251 20.847C108.826 20.1322 109.095 19.2052 109.061 18.2938C104.646 18.2923 100.23 18.2931 95.8142 18.2938C95.7964 22.5978 95.7793 26.9025 95.7615 31.2064C102.342 31.2079 108.921 31.2064 115.501 31.2071C116.191 31.2012 116.901 31.2598 117.563 31.0261C119.011 30.5748 120.085 29.1602 120.129 27.6439C120.159 26.0809 120.166 24.5178 120.185 22.9548C118.458 22.9525 116.73 22.9555 115.002 22.9533C115.001 21.8675 115.002 20.7816 115.002 19.6951C117.813 19.6906 120.626 19.6943 123.437 19.6936C123.424 21.8482 123.408 24.0027 123.395 26.1566C123.376 27.1029 123.439 28.0618 123.222 28.991C122.866 30.6334 121.889 32.1304 120.531 33.1198C119.343 34.0007 117.867 34.4772 116.388 34.472C108.429 34.4728 100.469 34.4743 92.51 34.4713C92.5286 27.9905 92.5442 21.509 92.5627 15.0275C94.505 15.0267 96.4466 15.0282 98.3881 15.0275C97.905 13.1111 98.0237 11.0427 98.7681 9.20945C99.5608 7.21742 101.07 5.52449 102.954 4.50473ZM104.13 7.59445C103.045 8.28395 102.196 9.33191 101.741 10.5335C101.193 11.9689 101.212 13.6173 101.816 15.0319C105.312 15.0215 108.809 15.0297 112.306 15.0282C112.306 15.4193 112.306 15.8105 112.306 16.2023C113.224 14.908 113.602 13.2477 113.334 11.6839C113.096 10.2292 112.3 8.87547 111.146 7.95887C110.155 7.16176 108.906 6.69566 107.636 6.64223C106.406 6.58805 105.164 6.92797 104.13 7.59445Z" fill="white"/>
<path d="M8.06 32.08C7.64667 32.08 7.28 31.9733 6.96 31.76C6.65333 31.5467 6.50667 31.2267 6.52 30.8C6.54667 30.0533 6.6 29.2267 6.68 28.32C6.77333 27.4133 6.88 26.4933 7 25.56C7.12 24.6133 7.24 23.7067 7.36 22.84C7.49333 21.9733 7.61333 21.2 7.72 20.52C7.48 20.4933 7.24667 20.4733 7.02 20.46C6.79333 20.4467 6.58667 20.44 6.4 20.44C5.84 20.44 5.33333 20.4933 4.88 20.6C4.44 20.7067 4.06667 20.8933 3.76 21.16C3.76 20.32 3.82667 19.64 3.96 19.12C4.10667 18.5867 4.36667 18.2 4.74 17.96C5.12667 17.72 5.68667 17.6 6.42 17.6C6.95333 17.6 7.54667 17.6467 8.2 17.74C8.86667 17.82 9.54 17.9067 10.22 18C10.9 18.0933 11.5333 18.14 12.12 18.14C12.6 18.14 13.0267 18.0933 13.4 18C13.7867 17.9067 14.08 17.74 14.28 17.5C14.5733 17.5933 14.8 17.8 14.96 18.12C15.12 18.4267 15.2 18.7667 15.2 19.14C15.2 19.4733 15.1267 19.8 14.98 20.12C14.8333 20.4267 14.6 20.6867 14.28 20.9C13.96 21.1 13.5267 21.2 12.98 21.2C12.7267 21.2 12.4133 21.18 12.04 21.14C11.68 21.0867 11.2933 21.0333 10.88 20.98C10.7333 21.78 10.58 22.74 10.42 23.86C10.2733 24.9667 10.1467 26.16 10.04 27.44C9.94667 28.72 9.88667 30.02 9.86 31.34C9.62 31.5933 9.33333 31.78 9 31.9C8.68 32.02 8.36667 32.08 8.06 32.08ZM17.1383 32.14C16.1649 32.14 15.3583 31.9467 14.7183 31.56C14.0783 31.16 13.5983 30.64 13.2783 30C12.9583 29.3467 12.7983 28.6467 12.7983 27.9C12.7983 27.1933 12.9316 26.4867 13.1983 25.78C13.4783 25.06 13.8783 24.4067 14.3983 23.82C14.9316 23.2333 15.5716 22.76 16.3183 22.4C17.0783 22.04 17.9316 21.86 18.8783 21.86C20.0516 21.86 20.9049 22.1267 21.4383 22.66C21.9849 23.18 22.2583 23.8133 22.2583 24.56C22.2583 25.2 22.0849 25.7933 21.7383 26.34C21.4049 26.8733 20.9583 27.3067 20.3983 27.64C19.8383 27.96 19.2249 28.12 18.5583 28.12C18.2116 28.12 17.8583 28.0667 17.4983 27.96C17.1383 27.8533 16.7849 27.6867 16.4383 27.46C16.5049 28.2867 16.7449 28.8867 17.1583 29.26C17.5716 29.6333 18.0649 29.82 18.6383 29.82C19.0383 29.82 19.4383 29.7467 19.8383 29.6C20.2383 29.44 20.6049 29.24 20.9383 29C21.2849 28.7467 21.5516 28.48 21.7383 28.2L21.8783 28.3C21.8783 28.9933 21.7316 29.5867 21.4383 30.08C21.1583 30.56 20.7849 30.9533 20.3183 31.26C19.8516 31.5667 19.3383 31.7933 18.7783 31.94C18.2316 32.0733 17.6849 32.14 17.1383 32.14ZM17.5983 26.74C18.0249 26.74 18.3716 26.62 18.6383 26.38C18.9049 26.1267 19.1049 25.8333 19.2383 25.5C19.3716 25.1667 19.4383 24.8733 19.4383 24.62C19.4383 24.3133 19.3516 24.06 19.1783 23.86C19.0049 23.6467 18.7649 23.54 18.4583 23.54C18.2183 23.54 17.9516 23.6267 17.6583 23.8C17.3783 23.9733 17.1249 24.2733 16.8983 24.7C16.6716 25.1133 16.5249 25.6933 16.4583 26.44C16.8849 26.64 17.2649 26.74 17.5983 26.74ZM27.2842 32.14C26.4042 32.14 25.6576 31.94 25.0442 31.54C24.4442 31.14 23.9909 30.62 23.6842 29.98C23.3776 29.3267 23.2242 28.6267 23.2242 27.88C23.2242 27.1733 23.3576 26.4667 23.6242 25.76C23.9042 25.0533 24.3109 24.4067 24.8442 23.82C25.3776 23.22 26.0242 22.7467 26.7842 22.4C27.5576 22.04 28.4442 21.86 29.4442 21.86C30.4309 21.86 31.1642 22.06 31.6442 22.46C32.1242 22.8467 32.3642 23.2733 32.3642 23.74C32.3642 24.2333 32.1176 24.6867 31.6242 25.1C31.1309 25.5133 30.4109 25.72 29.4642 25.72C29.5176 25.52 29.5576 25.32 29.5842 25.12C29.6242 24.9067 29.6442 24.7067 29.6442 24.52C29.6442 24.24 29.5842 24.0067 29.4642 23.82C29.3442 23.62 29.1309 23.52 28.8242 23.52C28.5442 23.52 28.2442 23.6467 27.9242 23.9C27.6176 24.1533 27.3509 24.5267 27.1242 25.02C26.9109 25.5133 26.8042 26.12 26.8042 26.84C26.8042 27.5467 26.9176 28.12 27.1442 28.56C27.3842 29 27.6909 29.32 28.0642 29.52C28.4376 29.7067 28.8309 29.8 29.2442 29.8C29.7909 29.8 30.3176 29.66 30.8242 29.38C31.3309 29.0867 31.6976 28.6867 31.9242 28.18L32.1242 28.26C32.1242 28.9533 31.9642 29.5467 31.6442 30.04C31.3376 30.52 30.9376 30.92 30.4442 31.24C29.9509 31.5467 29.4242 31.7733 28.8642 31.92C28.3042 32.0667 27.7776 32.14 27.2842 32.14ZM35.2094 32.08C34.636 32.08 34.176 31.8867 33.8294 31.5C33.4827 31.1133 33.3094 30.5867 33.3094 29.92C33.3094 29.56 33.356 29.0933 33.4494 28.52C33.5427 27.9333 33.656 27.2933 33.7894 26.6C33.936 25.8933 34.076 25.18 34.2094 24.46C34.3427 23.7267 34.456 23.02 34.5494 22.34C34.6427 21.66 34.6894 21.06 34.6894 20.54C34.6894 19.8867 34.6027 19.4133 34.4294 19.12V19C34.7227 18.6667 35.0427 18.42 35.3894 18.26C35.736 18.1 36.076 18.02 36.4094 18.02C36.916 18.02 37.3494 18.2 37.7094 18.56C38.0694 18.92 38.2494 19.46 38.2494 20.18C38.2494 20.5667 38.196 21.04 38.0894 21.6C37.9827 22.16 37.856 22.7467 37.7094 23.36C37.5627 23.9733 37.416 24.5467 37.2694 25.08C37.5227 24.5867 37.856 24.1 38.2694 23.62C38.696 23.1267 39.176 22.72 39.7094 22.4C40.256 22.08 40.8227 21.92 41.4094 21.92C42.076 21.92 42.5227 22.1267 42.7494 22.54C42.9894 22.9533 43.1094 23.4667 43.1094 24.08C43.1094 24.64 43.0494 25.24 42.9294 25.88C42.8094 26.5067 42.6894 27.1133 42.5694 27.7C42.4494 28.2733 42.3894 28.7533 42.3894 29.14C42.3894 29.7 42.556 29.98 42.8894 29.98C43.036 29.98 43.1627 29.94 43.2694 29.86C43.3894 29.7667 43.476 29.6667 43.5294 29.56L43.6694 29.66C43.6694 30.18 43.5427 30.62 43.2894 30.98C43.036 31.34 42.7094 31.6133 42.3094 31.8C41.9227 31.9867 41.5227 32.08 41.1094 32.08C40.5627 32.08 40.0694 31.9 39.6294 31.54C39.1894 31.1667 38.9694 30.5667 38.9694 29.74C38.9694 29.2733 39.0294 28.7667 39.1494 28.22C39.2827 27.6733 39.4094 27.1467 39.5294 26.64C39.6494 26.12 39.7094 25.6867 39.7094 25.34C39.7094 24.8867 39.5494 24.66 39.2294 24.66C38.936 24.66 38.616 24.8067 38.2694 25.1C37.9227 25.3933 37.616 25.76 37.3494 26.2C37.096 26.64 36.9294 27.0733 36.8494 27.5C36.8227 27.6067 36.8094 27.7333 36.8094 27.88C36.8094 28.2133 36.856 28.5333 36.9494 28.84C37.056 29.1467 37.1094 29.5067 37.1094 29.92C37.1094 30.5333 36.9494 31.0467 36.6294 31.46C36.3094 31.8733 35.836 32.08 35.2094 32.08ZM48.1928 32.12C47.2995 32.12 46.5595 31.9667 45.9728 31.66C45.3995 31.3533 44.9728 30.96 44.6928 30.48C44.4128 30 44.2728 29.5067 44.2728 29C44.2728 28.5067 44.3928 28.04 44.6328 27.6C44.8728 27.1467 45.2128 26.7733 45.6528 26.48C46.1061 26.1867 46.6395 26.04 47.2528 26.04C47.2395 26.16 47.2328 26.2733 47.2328 26.38C47.2328 26.4733 47.2328 26.52 47.2328 26.52C47.2328 27.4133 47.3195 28.12 47.4928 28.64C47.6661 29.1467 47.8861 29.5133 48.1528 29.74C48.4195 29.9533 48.6928 30.06 48.9728 30.06C49.3995 30.06 49.7795 29.8933 50.1128 29.56C50.4461 29.2133 50.6128 28.8133 50.6128 28.36C50.6128 27.8533 50.3928 27.4067 49.9528 27.02C49.5261 26.6333 48.9795 26.2067 48.3128 25.74C47.9395 25.46 47.5395 25.1467 47.1128 24.8C46.6995 24.44 46.3461 24.02 46.0528 23.54C45.7595 23.0467 45.6128 22.4667 45.6128 21.8C45.6128 21.1067 45.7728 20.4933 46.0928 19.96C46.4261 19.4267 46.8595 18.98 47.3928 18.62C47.9395 18.2467 48.5328 17.9667 49.1728 17.78C49.8261 17.58 50.4728 17.48 51.1128 17.48C51.8995 17.48 52.5461 17.6067 53.0528 17.86C53.5595 18.1133 53.9395 18.44 54.1928 18.84C54.4461 19.24 54.5728 19.6533 54.5728 20.08C54.5728 20.48 54.4595 20.8667 54.2328 21.24C54.0195 21.6 53.6995 21.8933 53.2728 22.12C52.8461 22.3467 52.3195 22.46 51.6928 22.46C51.7328 22.2733 51.7595 22.1067 51.7728 21.96C51.7861 21.8 51.7928 21.66 51.7928 21.54C51.7928 20.8733 51.6461 20.4 51.3528 20.12C51.0728 19.8267 50.7595 19.68 50.4128 19.68C50.0795 19.68 49.7595 19.8067 49.4528 20.06C49.1461 20.3 48.9928 20.6933 48.9928 21.24C48.9928 21.7067 49.1128 22.1067 49.3528 22.44C49.6061 22.7733 49.9261 23.0667 50.3128 23.32C50.7128 23.5733 51.1328 23.82 51.5728 24.06C52.0261 24.3 52.4595 24.5667 52.8728 24.86C53.2995 25.14 53.6528 25.4733 53.9328 25.86C54.2128 26.2467 54.3528 26.7333 54.3528 27.32C54.3528 27.9333 54.1861 28.5333 53.8528 29.12C53.5195 29.6933 53.0661 30.2067 52.4928 30.66C51.9195 31.1 51.2595 31.4533 50.5128 31.72C49.7795 31.9867 49.0061 32.12 48.1928 32.12ZM57.5531 32.08C56.9798 32.08 56.5198 31.8867 56.1731 31.5C55.8265 31.1133 55.6531 30.5867 55.6531 29.92C55.6531 29.56 55.6998 29.0933 55.7931 28.52C55.8865 27.9333 55.9998 27.2933 56.1331 26.6C56.2798 25.8933 56.4198 25.18 56.5531 24.46C56.6865 23.7267 56.7998 23.02 56.8931 22.34C56.9865 21.66 57.0331 21.06 57.0331 20.54C57.0331 19.8867 56.9465 19.4133 56.7731 19.12V19C57.0665 18.6667 57.3865 18.42 57.7331 18.26C58.0798 18.1 58.4198 18.02 58.7531 18.02C59.2598 18.02 59.6931 18.2 60.0531 18.56C60.4131 18.92 60.5931 19.46 60.5931 20.18C60.5931 20.5667 60.5398 21.04 60.4331 21.6C60.3265 22.16 60.1998 22.7467 60.0531 23.36C59.9065 23.9733 59.7598 24.5467 59.6131 25.08C59.8665 24.5867 60.1998 24.1 60.6131 23.62C61.0398 23.1267 61.5198 22.72 62.0531 22.4C62.5998 22.08 63.1665 21.92 63.7531 21.92C64.4198 21.92 64.8665 22.1267 65.0931 22.54C65.3331 22.9533 65.4531 23.4667 65.4531 24.08C65.4531 24.64 65.3931 25.24 65.2731 25.88C65.1531 26.5067 65.0331 27.1133 64.9131 27.7C64.7931 28.2733 64.7331 28.7533 64.7331 29.14C64.7331 29.7 64.8998 29.98 65.2331 29.98C65.3798 29.98 65.5065 29.94 65.6131 29.86C65.7331 29.7667 65.8198 29.6667 65.8731 29.56L66.0131 29.66C66.0131 30.18 65.8865 30.62 65.6331 30.98C65.3798 31.34 65.0531 31.6133 64.6531 31.8C64.2665 31.9867 63.8665 32.08 63.4531 32.08C62.9065 32.08 62.4131 31.9 61.9731 31.54C61.5331 31.1667 61.3131 30.5667 61.3131 29.74C61.3131 29.2733 61.3731 28.7667 61.4931 28.22C61.6265 27.6733 61.7531 27.1467 61.8731 26.64C61.9931 26.12 62.0531 25.6867 62.0531 25.34C62.0531 24.8867 61.8931 24.66 61.5731 24.66C61.2798 24.66 60.9598 24.8067 60.6131 25.1C60.2665 25.3933 59.9598 25.76 59.6931 26.2C59.4398 26.64 59.2731 27.0733 59.1931 27.5C59.1665 27.6067 59.1531 27.7333 59.1531 27.88C59.1531 28.2133 59.1998 28.5333 59.2931 28.84C59.3998 29.1467 59.4531 29.5067 59.4531 29.92C59.4531 30.5333 59.2931 31.0467 58.9731 31.46C58.6531 31.8733 58.1798 32.08 57.5531 32.08ZM71.4366 32.14C70.4366 32.14 69.6099 31.94 68.9566 31.54C68.3032 31.14 67.8166 30.6133 67.4966 29.96C67.1899 29.2933 67.0366 28.5867 67.0366 27.84C67.0366 27.1333 67.1632 26.4267 67.4166 25.72C67.6832 25.0133 68.0632 24.3733 68.5566 23.8C69.0632 23.2133 69.6766 22.7467 70.3966 22.4C71.1166 22.04 71.9432 21.86 72.8766 21.86C73.8766 21.86 74.6966 22.0667 75.3366 22.48C75.9899 22.88 76.4699 23.4133 76.7766 24.08C77.0966 24.7467 77.2566 25.46 77.2566 26.22C77.2566 26.9133 77.1299 27.6133 76.8766 28.32C76.6232 29.0133 76.2432 29.6533 75.7366 30.24C75.2432 30.8133 74.6366 31.2733 73.9166 31.62C73.1966 31.9667 72.3699 32.14 71.4366 32.14ZM71.9766 30.44C72.3366 30.44 72.6366 30.2533 72.8766 29.88C73.1166 29.5067 73.2966 29.0333 73.4166 28.46C73.5366 27.8733 73.5966 27.28 73.5966 26.68C73.5966 26.1467 73.5432 25.6467 73.4366 25.18C73.3432 24.7 73.1966 24.3133 72.9966 24.02C72.7966 23.7133 72.5366 23.56 72.2166 23.56C71.8699 23.56 71.5699 23.7467 71.3166 24.12C71.0766 24.4933 70.8966 24.9667 70.7766 25.54C70.6566 26.1133 70.5966 26.7067 70.5966 27.32C70.5966 27.8533 70.6432 28.36 70.7366 28.84C70.8432 29.3067 70.9966 29.6933 71.1966 30C71.3966 30.2933 71.6566 30.44 71.9766 30.44ZM80.2642 36C79.9309 36 79.6109 35.9133 79.3042 35.74C79.0109 35.5667 78.7642 35.2867 78.5642 34.9C78.3776 34.5133 78.2842 33.9933 78.2842 33.34C78.2842 32.7133 78.3642 32.0333 78.5242 31.3C78.6976 30.5667 78.8909 29.8333 79.1042 29.1C79.3176 28.3533 79.5042 27.6467 79.6642 26.98C79.8376 26.3133 79.9242 25.72 79.9242 25.2C79.9242 24.8133 79.8709 24.5533 79.7642 24.42C79.6576 24.2733 79.5309 24.2 79.3842 24.2C79.2509 24.2 79.1176 24.24 78.9842 24.32C78.8509 24.4 78.7376 24.4933 78.6442 24.6L78.5042 24.52C78.5042 24.0533 78.6376 23.6267 78.9042 23.24C79.1842 22.84 79.5376 22.52 79.9642 22.28C80.3909 22.04 80.8309 21.92 81.2842 21.92C81.7242 21.92 82.0776 22.0333 82.3442 22.26C82.6109 22.4733 82.8109 22.7533 82.9442 23.1C83.0909 23.4467 83.1776 23.82 83.2042 24.22C83.7109 23.42 84.2642 22.8267 84.8642 22.44C85.4642 22.0533 86.0309 21.86 86.5642 21.86C87.2842 21.86 87.8909 22.2 88.3842 22.88C88.8909 23.56 89.1442 24.6133 89.1442 26.04C89.1442 27.3733 88.9309 28.4933 88.5042 29.4C88.0776 30.2933 87.5376 30.9667 86.8842 31.42C86.2442 31.86 85.5909 32.08 84.9242 32.08C84.3509 32.08 83.8176 31.9133 83.3242 31.58C82.8442 31.2333 82.4709 30.7333 82.2042 30.08C82.0842 30.6267 81.9776 31.1667 81.8842 31.7C81.8042 32.2333 81.7642 32.7533 81.7642 33.26C81.7642 33.54 81.7776 33.8133 81.8042 34.08C81.8442 34.3467 81.9042 34.6133 81.9842 34.88V35C81.8109 35.3333 81.5642 35.58 81.2442 35.74C80.9376 35.9133 80.6109 36 80.2642 36ZM83.9442 30.14C84.2642 30.14 84.5442 30.0133 84.7842 29.76C85.0242 29.5067 85.2309 29.18 85.4042 28.78C85.5776 28.3667 85.7042 27.9267 85.7842 27.46C85.8776 26.9933 85.9242 26.54 85.9242 26.1C85.9242 25.54 85.8509 25.0667 85.7042 24.68C85.5576 24.28 85.3309 24.08 85.0242 24.08C84.6376 24.08 84.2042 24.4733 83.7242 25.26C83.2442 26.0333 82.8709 27.2133 82.6042 28.8C82.7242 29.2133 82.9042 29.54 83.1442 29.78C83.3842 30.02 83.6509 30.14 83.9442 30.14Z" fill="white"/>
</svg>
