<svg width="129" height="56" viewBox="0 0 129 56" fill="none" xmlns="http://www.w3.org/2000/svg">
<g clip-path="url(#clip0_3_10)">
<path d="M102.144 9.31223C103.992 8.21778 106.165 7.78052 108.25 8.10438C110.575 8.44543 112.761 9.74005 114.302 11.6575C115.772 13.4632 116.655 15.8162 116.762 18.2225C116.882 20.5995 116.254 23.0118 114.997 24.9644C114.193 26.2204 113.143 27.2934 111.929 28.0725C111.816 28.1481 111.678 28.2177 111.651 28.375C110.839 30.818 108.862 32.7501 106.54 33.3799C105.856 33.5748 105.147 33.6444 104.44 33.6401C102.892 33.6393 101.344 33.6384 99.7955 33.6401C99.7923 32.3798 99.7944 31.1197 99.7944 29.8594C101.446 29.8577 103.098 29.862 104.75 29.8577C105.923 29.8491 107.074 29.2314 107.796 28.2281C108.41 27.4007 108.697 26.3277 108.66 25.2728C103.949 25.2711 99.2375 25.272 94.5257 25.2728C94.5067 30.2546 94.4884 35.2372 94.4694 40.2189C101.491 40.2206 108.511 40.2189 115.532 40.2197C116.268 40.2129 117.026 40.2807 117.732 40.0102C119.277 39.4878 120.423 37.8504 120.47 36.0954C120.502 34.2862 120.51 32.4769 120.53 30.6678C118.687 30.6651 116.843 30.6686 115 30.6661C114.999 29.4093 115 28.1524 115 26.8948C117.999 26.8896 121.001 26.8938 124 26.893C123.986 29.3869 123.969 31.8807 123.955 34.3738C123.935 35.4692 124.002 36.5791 123.771 37.6546C123.391 39.5556 122.348 41.2884 120.899 42.4336C119.632 43.4532 118.057 44.0048 116.479 43.9987C107.986 43.9997 99.4925 44.0014 91 43.9979C91.0198 36.4966 91.0365 28.9943 91.0562 21.4921C93.1287 21.4912 95.2005 21.4929 97.2721 21.4921C96.7566 19.2739 96.8833 16.8798 97.6776 14.7578C98.5234 12.4521 100.134 10.4926 102.144 9.31223ZM103.399 12.8885C102.241 13.6866 101.335 14.8996 100.85 16.2904C100.265 17.9518 100.285 19.8598 100.93 21.4972C104.66 21.4852 108.392 21.4947 112.123 21.4929C112.123 21.9456 112.123 22.3984 112.123 22.8519C113.102 21.3538 113.506 19.432 113.22 17.622C112.966 15.9382 112.117 14.3713 110.885 13.3103C109.828 12.3877 108.495 11.8482 107.14 11.7863C105.827 11.7236 104.502 12.1171 103.399 12.8885Z" fill="#F3F6F9"/>
<path d="M17.1592 28.0952C18.4819 28.0952 19.5112 28.4845 20.2472 29.2632C20.9832 30.0312 21.3512 31.1458 21.3512 32.6072V39.4872H18.7592V32.6872C18.7592 31.8978 18.5512 31.3058 18.1352 30.9112C17.7299 30.5058 17.1912 30.3032 16.5192 30.3032C15.7832 30.3032 15.1966 30.5165 14.7592 30.9432C14.3219 31.3592 14.1032 31.9938 14.1032 32.8472V39.4872H11.5112V32.6872C11.5112 31.8978 11.3192 31.3058 10.9352 30.9112C10.5512 30.5058 10.0286 30.3032 9.36724 30.3032C8.64191 30.3032 8.06058 30.5165 7.62324 30.9432C7.18591 31.3592 6.96724 31.9938 6.96724 32.8472V39.4872H4.37524V28.2872H6.88724V29.6632C7.22858 29.1618 7.68191 28.7778 8.24724 28.5112C8.81258 28.2338 9.46324 28.0952 10.1992 28.0952C10.9672 28.0952 11.6392 28.2392 12.2152 28.5272C12.7912 28.8045 13.2339 29.2098 13.5432 29.7432C13.9272 29.2098 14.4286 28.8045 15.0472 28.5272C15.6766 28.2392 16.3806 28.0952 17.1592 28.0952ZM32.4665 30.8792V39.4872H30.0825V38.4952C29.4638 39.2418 28.5678 39.6152 27.3945 39.6152C26.5838 39.6152 25.8478 39.4338 25.1865 39.0712C24.5358 38.7085 24.0238 38.1912 23.6505 37.5192C23.2772 36.8472 23.0905 36.0685 23.0905 35.1832C23.0905 34.2978 23.2772 33.5192 23.6505 32.8472C24.0238 32.1752 24.5358 31.6578 25.1865 31.2952C25.8478 30.9325 26.5838 30.7512 27.3945 30.7512C28.4932 30.7512 29.3518 31.0978 29.9705 31.7912V30.8792H32.4665ZM27.8265 37.5672C28.4558 37.5672 28.9785 37.3538 29.3945 36.9272C29.8105 36.4898 30.0185 35.9085 30.0185 35.1832C30.0185 34.4578 29.8105 33.8818 29.3945 33.4552C28.9785 33.0178 28.4558 32.7992 27.8265 32.7992C27.1865 32.7992 26.6585 33.0178 26.2425 33.4552C25.8265 33.8818 25.6185 34.4578 25.6185 35.1832C25.6185 35.9085 25.8265 36.4898 26.2425 36.9272C26.6585 37.3538 27.1865 37.5672 27.8265 37.5672ZM37.1614 32.0152C37.46 31.5992 37.86 31.2845 38.3614 31.0712C38.8734 30.8578 39.46 30.7512 40.1214 30.7512V33.0552C39.844 33.0338 39.6574 33.0232 39.5614 33.0232C38.8467 33.0232 38.2867 33.2258 37.8814 33.6312C37.476 34.0258 37.2734 34.6232 37.2734 35.4232V39.4872H34.7774V30.8792H37.1614V32.0152ZM45.3015 36.1112L44.1015 37.2952V39.4872H41.6055V27.6152H44.1015V34.3352L47.7495 30.8792H50.7255L47.1415 34.5272L51.0455 39.4872H48.0215L45.3015 36.1112ZM56.129 37.6152C56.577 37.6152 56.9717 37.5512 57.313 37.4232C57.665 37.2845 57.9903 37.0712 58.289 36.7832L59.617 38.2232C58.8063 39.1512 57.6223 39.6152 56.065 39.6152C55.0943 39.6152 54.2357 39.4285 53.489 39.0552C52.7423 38.6712 52.1663 38.1432 51.761 37.4712C51.3557 36.7992 51.153 36.0365 51.153 35.1832C51.153 34.3405 51.3503 33.5832 51.745 32.9112C52.1503 32.2285 52.6997 31.7005 53.393 31.3272C54.097 30.9432 54.8863 30.7512 55.761 30.7512C56.5823 30.7512 57.329 30.9272 58.001 31.2792C58.673 31.6205 59.2063 32.1218 59.601 32.7832C60.0063 33.4338 60.209 34.2072 60.209 35.1032L53.841 36.3352C54.0223 36.7618 54.305 37.0818 54.689 37.2952C55.0837 37.5085 55.5637 37.6152 56.129 37.6152ZM55.761 32.6392C55.1317 32.6392 54.6197 32.8418 54.225 33.2472C53.8303 33.6525 53.6223 34.2125 53.601 34.9272L57.793 34.1112C57.6757 33.6632 57.4357 33.3058 57.073 33.0392C56.7103 32.7725 56.273 32.6392 55.761 32.6392ZM67.0707 39.0712C66.8254 39.2525 66.5214 39.3912 66.1587 39.4872C65.8067 39.5725 65.4387 39.6152 65.0547 39.6152C64.0201 39.6152 63.2254 39.3538 62.6707 38.8312C62.1161 38.3085 61.8387 37.5405 61.8387 36.5272V28.9752H64.3347V31.0712H66.4627V32.9912H64.3347V36.4952C64.3347 36.8578 64.4254 37.1405 64.6067 37.3432C64.7881 37.5352 65.0494 37.6312 65.3907 37.6312C65.7747 37.6312 66.1161 37.5245 66.4147 37.3112L67.0707 39.0712ZM71.5685 39.6152C70.5978 39.6152 69.8405 39.3592 69.2965 38.8472C68.7525 38.3245 68.4805 37.5885 68.4805 36.6392V27.6152H70.9765V36.4952C70.9765 36.8578 71.0672 37.1405 71.2485 37.3432C71.4405 37.5352 71.7072 37.6312 72.0485 37.6312C72.1765 37.6312 72.3045 37.6152 72.4325 37.5832C72.5712 37.5512 72.6778 37.5138 72.7525 37.4712L72.8645 39.4072C72.4485 39.5458 72.0165 39.6152 71.5685 39.6152ZM82.7619 30.8792V38.0472C82.7619 39.6258 82.3619 40.7992 81.5619 41.5672C80.7619 42.3352 79.5992 42.7192 78.0739 42.7192C77.2632 42.7192 76.4952 42.6178 75.7699 42.4152C75.0552 42.2125 74.4525 41.9192 73.9619 41.5352L74.9539 39.7432C75.3165 40.0418 75.7592 40.2765 76.2819 40.4472C76.8045 40.6178 77.3325 40.7032 77.8659 40.7032C78.6979 40.7032 79.3059 40.5112 79.6899 40.1272C80.0739 39.7432 80.2659 39.1565 80.2659 38.3672V38.0792C79.9459 38.3992 79.5672 38.6445 79.1299 38.8152C78.6925 38.9858 78.2232 39.0712 77.7219 39.0712C76.5912 39.0712 75.6952 38.7512 75.0339 38.1112C74.3725 37.4605 74.0419 36.4898 74.0419 35.1992V30.8792H76.5379V34.8312C76.5379 36.2285 77.1192 36.9272 78.2819 36.9272C78.8792 36.9272 79.3592 36.7352 79.7219 36.3512C80.0845 35.9565 80.2659 35.3752 80.2659 34.6072V30.8792H82.7619Z" fill="#3A4654"/>
</g>
<defs>
<clipPath id="clip0_3_10">
<rect width="129" height="56" fill="white"/>
</clipPath>
</defs>
</svg>
