<svg width="129" height="38" viewBox="0 0 129 38" fill="none" xmlns="http://www.w3.org/2000/svg">
<path d="M6.68475 24.5C5.55542 24.5 4.57275 24.2947 3.73675 23.884C2.91542 23.4587 2.27742 22.872 1.82275 22.124C1.38275 21.3613 1.16275 20.4813 1.16275 19.484C1.16275 19.0293 1.22142 18.5087 1.33875 17.922L2.08675 14.622H4.59475L3.95675 17.548C3.89809 17.7973 3.86875 18.0687 3.86875 18.362C3.86875 19.11 4.11075 19.704 4.59475 20.144C5.07875 20.584 5.73875 20.804 6.57475 20.804H11.7888C12.6541 20.804 13.3361 20.6207 13.8348 20.254L12.4268 13.962L15.2648 12.576L16.6288 18.626C16.7168 19.022 16.7608 19.4107 16.7608 19.792C16.7608 20.672 16.5408 21.4713 16.1008 22.19C15.6754 22.9087 15.0741 23.4733 14.2968 23.884C13.5194 24.2947 12.6321 24.5 11.6348 24.5H6.68475ZM11.5688 26.788V29.406H9.83075L9.89675 31.892H7.10275L7.16875 29.406H5.43075V26.788H11.5688ZM33.2391 23.488C32.9018 23.8547 32.5058 24.1187 32.0511 24.28C31.5964 24.4267 31.0611 24.5 30.4451 24.5H22.1731C20.9118 24.5 19.8924 24.104 19.1151 23.312C18.3378 22.52 17.9491 21.4493 17.9491 20.1L17.9051 10.728L20.7871 9.958V19.154C20.7871 19.682 20.9264 20.0927 21.2051 20.386C21.4984 20.6647 21.8944 20.804 22.3931 20.804H25.0331V15.502L27.7831 14.886V20.804H30.6431C31.0538 20.804 31.3911 20.6647 31.6551 20.386C31.9191 20.1073 32.0511 19.7553 32.0511 19.33V16.756H34.6911V19.33L34.6691 20.386L38.1451 21.376L36.6711 14.248L39.3551 12.818L40.8731 20.32C40.9318 20.5987 40.9611 20.892 40.9611 21.2C40.9611 22.1093 40.6531 22.938 40.0371 23.686L38.8931 25.094L33.2391 23.488ZM34.2291 11.63H35.9671V14.248H29.8291V11.63H31.5671L31.5011 9.144H34.2951L34.2291 11.63ZM53.9616 20.804C54.2549 20.804 54.5042 20.9873 54.7096 21.354C54.9149 21.706 55.0176 22.1387 55.0176 22.652C55.0176 23.1653 54.9149 23.6053 54.7096 23.972C54.5042 24.324 54.2549 24.5 53.9616 24.5H51.9156C51.7836 25.2773 51.4902 25.952 51.0356 26.524C50.5809 27.1107 49.9869 27.514 49.2536 27.734L45.3816 28.966L44.3696 26.062L48.1976 24.852L49.4076 24.478L49.3196 23.84L48.2196 24.104C47.9116 24.1627 47.5742 24.192 47.2076 24.192H45.3816C44.6189 24.192 43.9589 23.9427 43.4016 23.444C42.8589 22.9307 42.5362 22.278 42.4336 21.486L42.1256 19.374C42.0816 19.022 42.0596 18.6773 42.0596 18.34C42.0596 16.976 42.4189 15.8467 43.1376 14.952C43.8709 14.0427 44.9269 13.4413 46.3056 13.148L49.8916 12.356L51.0576 13.346C51.6589 13.8447 51.9596 14.49 51.9596 15.282L51.9816 20.804H53.9616ZM49.1216 20.914V15.678L46.2836 16.272C45.3302 16.4773 44.8536 17.0127 44.8536 17.878C44.8536 17.9807 44.8682 18.1347 44.8976 18.34L45.2496 20.914H49.1216ZM53.2966 24.5C53.0032 24.5 52.7539 24.324 52.5486 23.972C52.3432 23.6053 52.2406 23.1653 52.2406 22.652C52.2406 22.1387 52.3432 21.706 52.5486 21.354C52.7539 20.9873 53.0032 20.804 53.2966 20.804H55.0126C55.7606 20.804 56.3326 20.6207 56.7286 20.254V19.616V14.82L59.6326 14.226V20.012C59.7206 20.2467 59.8746 20.4373 60.0946 20.584C60.3292 20.7307 60.6152 20.804 60.9526 20.804H62.6906C62.9839 20.804 63.2332 20.9873 63.4386 21.354C63.6439 21.7207 63.7466 22.1533 63.7466 22.652C63.7466 23.1507 63.6439 23.5833 63.4386 23.95C63.2332 24.3167 62.9839 24.5 62.6906 24.5H61.0846C60.4686 24.5 59.9259 24.3753 59.4566 24.126C59.0019 23.862 58.6206 23.444 58.3126 22.872C57.9752 23.4587 57.5499 23.8767 57.0366 24.126C56.5232 24.3753 55.9146 24.5 55.2106 24.5H53.2966ZM56.6186 9.606H59.6546V12.51H56.6186V9.606ZM62.0252 24.5C61.7319 24.5 61.4826 24.324 61.2772 23.972C61.0719 23.6053 60.9692 23.1653 60.9692 22.652C60.9692 22.1387 61.0719 21.706 61.2772 21.354C61.4826 20.9873 61.7319 20.804 62.0252 20.804H70.5832L70.5392 20.584L70.2752 19C70.2019 18.604 70.0406 18.296 69.7912 18.076C69.5419 17.8413 69.2266 17.724 68.8452 17.724H63.8512L62.2452 14.226L67.9212 8.704L69.3512 11.52L66.0072 14.644H69.2192C70.2166 14.644 71.0526 14.9227 71.7272 15.48C72.4019 16.0373 72.8199 16.778 72.9812 17.702L73.2892 19.484C73.3626 19.88 73.5386 20.2027 73.8172 20.452C74.0959 20.6867 74.4699 20.804 74.9392 20.804H75.5992C75.8926 20.804 76.1419 20.9873 76.3472 21.354C76.5526 21.706 76.6552 22.1387 76.6552 22.652C76.6552 23.1653 76.5526 23.6053 76.3472 23.972C76.1419 24.324 75.8926 24.5 75.5992 24.5H75.1592C74.4846 24.5 73.8612 24.3607 73.2892 24.082C72.7172 23.7887 72.2406 23.3927 71.8592 22.894L71.4632 23.466C71.2139 23.818 70.9279 24.082 70.6052 24.258C70.2972 24.4193 69.9232 24.5 69.4832 24.5H62.0252ZM74.9214 24.5C74.628 24.5 74.3787 24.3167 74.1734 23.95C73.968 23.5833 73.8654 23.1507 73.8654 22.652C73.8654 22.1387 73.968 21.706 74.1734 21.354C74.3787 20.9873 74.628 20.804 74.9214 20.804H76.9234C77.8034 20.804 78.4927 20.628 78.9914 20.276L77.6494 13.896L80.4874 12.532L81.6754 18.164C81.7927 18.7213 81.8514 19.2347 81.8514 19.704C81.8514 20.6573 81.6387 21.5007 81.2134 22.234C80.8027 22.9527 80.2087 23.51 79.4314 23.906C78.6687 24.302 77.7887 24.5 76.7914 24.5H74.9214ZM75.4054 8.528H81.5434V11.124H75.4054V8.528Z" fill="white"/>
<path d="M104.954 4.46951C106.685 3.52396 108.722 3.14619 110.676 3.42599C112.855 3.72064 114.904 4.83912 116.348 6.49568C117.725 8.05576 118.553 10.0886 118.654 12.1675C118.766 14.2211 118.177 16.3052 117 17.9922C116.246 19.0772 115.262 20.0042 114.124 20.6774C114.017 20.7427 113.889 20.8028 113.864 20.9387C113.102 23.0494 111.25 24.7186 109.074 25.2626C108.432 25.4311 107.767 25.4912 107.105 25.4875C105.654 25.4868 104.204 25.486 102.753 25.4875C102.75 24.3987 102.752 23.3099 102.752 22.2211C104.3 22.2197 105.847 22.2234 107.396 22.2197C108.496 22.2122 109.574 21.6786 110.251 20.8117C110.826 20.097 111.095 19.17 111.061 18.2586C106.645 18.2571 102.23 18.2579 97.814 18.2586C97.7962 22.5626 97.7791 26.8672 97.7613 31.1712C104.342 31.1727 110.921 31.1712 117.501 31.1719C118.191 31.166 118.9 31.2246 119.563 30.9908C121.011 30.5396 122.085 29.125 122.129 27.6087C122.158 26.0456 122.166 24.4826 122.185 22.9195C120.457 22.9173 118.73 22.9203 117.002 22.9181C117.001 21.8322 117.002 20.7464 117.002 19.6599C119.813 19.6554 122.625 19.6591 125.437 19.6584C125.423 21.8129 125.408 23.9675 125.394 26.1213C125.376 27.0676 125.439 28.0265 125.221 28.9558C124.866 30.5982 123.889 32.0952 122.531 33.0845C121.343 33.9655 119.867 34.442 118.388 34.4368C110.429 34.4376 102.469 34.439 94.5098 34.4361C94.5283 27.9553 94.5439 21.4738 94.5625 14.9922C96.5048 14.9915 98.4463 14.993 100.388 14.9922C99.9047 13.0759 100.023 11.0074 100.768 9.17424C101.561 7.1822 103.069 5.48928 104.954 4.46951ZM106.129 7.55924C105.045 8.24873 104.195 9.2967 103.741 10.4983C103.193 11.9337 103.212 13.5821 103.815 14.9967C107.312 14.9863 110.809 14.9945 114.305 14.993C114.306 15.3841 114.305 15.7753 114.305 16.1671C115.224 14.8728 115.602 13.2125 115.334 11.6487C115.096 10.194 114.3 8.84025 113.145 7.92365C112.155 7.12654 110.905 6.66045 109.636 6.60701C108.406 6.55283 107.164 6.89275 106.129 7.55924Z" fill="#FF8A00"/>
</svg>
