<svg width="209" height="134" viewBox="0 0 209 134" fill="none" xmlns="http://www.w3.org/2000/svg">
<g clip-path="url(#clip0_1_8)">
<path style="mix-blend-mode:multiply" d="M110.483 121.163C164.475 114.073 205.524 87.6013 202.167 62.0373C198.81 36.4732 152.319 21.497 98.3263 28.587C44.3337 35.6769 3.28524 62.1482 6.64213 87.7122C9.99902 113.276 56.49 128.252 110.483 121.163Z" fill="url(#paint0_radial_1_8)"/>
<path d="M36.2463 102.499L85.0168 118.622L61.6392 86.7797L36.2463 102.499Z" fill="#D37200"/>
<path d="M28.1858 55.7451L36.2464 102.499L182.96 83.153L182.225 24.088L28.1858 55.7451Z" fill="#FF8A00"/>
<path d="M2.91885 73.8592C2.91885 73.8592 24.9587 75.0417 51.3459 85.6437L44.8693 39.1536C22.3846 56.564 1.50708 63.7264 1.50708 63.7264L2.91885 73.8592Z" fill="#3A4654"/>
<path d="M54.4092 85.8255C54.4748 86.2996 54.3495 86.7805 54.0608 87.1623C53.7721 87.5441 53.3436 87.7957 52.8695 87.8618C52.6347 87.8947 52.3956 87.8811 52.166 87.8215C51.9364 87.762 51.7208 87.6579 51.5314 87.515C51.3421 87.3721 51.1828 87.1933 51.0627 86.9888C50.9425 86.7843 50.8638 86.5581 50.8311 86.3232L44.1897 38.6411C44.1569 38.4062 44.1707 38.1672 44.2304 37.9376C44.29 37.7081 44.3943 37.4926 44.5373 37.3034C44.6803 37.1142 44.8592 36.955 45.0637 36.8349C45.2682 36.7149 45.4944 36.6363 45.7293 36.6038C45.9642 36.571 46.2033 36.5848 46.4328 36.6444C46.6623 36.7041 46.8779 36.8084 47.0671 36.9514C47.2563 37.0943 47.4155 37.2732 47.5355 37.4778C47.6555 37.6823 47.7341 37.9085 47.7667 38.1434L54.4092 85.8255Z" fill="#3A4654"/>
<path d="M5.00579 73.5687C5.07146 74.0428 4.94634 74.5236 4.65789 74.9056C4.36943 75.2875 3.94121 75.5394 3.46722 75.606C3.23227 75.6388 2.99317 75.625 2.76356 75.5654C2.53395 75.5057 2.31834 75.4015 2.12905 75.2585C1.93976 75.1155 1.78049 74.9366 1.66034 74.7321C1.54019 74.5275 1.46152 74.3013 1.42882 74.0664L0.0170475 63.9335C-0.0485769 63.4592 0.0768599 62.9783 0.365778 62.5964C0.654696 62.2146 1.08344 61.9631 1.55774 61.8973C2.03159 61.8309 2.51239 61.9554 2.89458 62.2433C3.27676 62.5311 3.52908 62.9589 3.59614 63.4327L5.00579 73.5687Z" fill="#3A4654"/>
<path d="M11.2743 67.9417L25.429 90.3228L18.2201 94.2073L7.31055 70.0783L11.2743 67.9417Z" fill="#3A4654"/>
<path d="M200.153 0L185.912 19.6155L187.013 20.4151L201.254 0.799619L200.153 0Z" fill="#FF8A00"/>
<path d="M198.836 21.524L189.164 25.2891L189.658 26.5575L199.33 22.7923L198.836 21.524Z" fill="#FF8A00"/>
<path d="M181.241 7.47278L178.288 18.2219L179.601 18.5824L182.553 7.8333L181.241 7.47278Z" fill="#FF8A00"/>
<path d="M198.712 87.1074L141.681 94.1807L141.826 95.3542L198.858 88.2809L198.712 87.1074Z" fill="#3A4654"/>
<path d="M94.0545 35.5966L55.6873 44.2783L55.9482 45.4316L94.3155 36.7499L94.0545 35.5966Z" fill="#3A4654"/>
<path d="M159.049 40.3691C159.049 40.7988 158.896 41.1634 158.59 41.4629C158.147 41.8861 157.512 42.0977 156.686 42.0977C155.976 42.0977 155.37 41.9316 154.869 41.5996C154.869 41.7103 154.863 41.7982 154.85 41.8633C154.817 41.9674 154.713 42.0195 154.537 42.0195V39.9492H154.918C154.944 40.2943 155.016 40.6003 155.133 40.8672C155.413 41.4987 155.898 41.8145 156.588 41.8145C156.77 41.8145 156.936 41.7884 157.086 41.7363C157.503 41.5801 157.711 41.2676 157.711 40.7988C157.711 40.6621 157.682 40.5286 157.623 40.3984C157.486 40.125 157.138 39.8418 156.578 39.5488C155.953 39.2298 155.602 39.0443 155.523 38.9922C154.905 38.6081 154.596 38.1458 154.596 37.6055C154.596 37.2409 154.723 36.9251 154.977 36.6582C155.374 36.248 155.966 36.043 156.754 36.043C157.353 36.043 157.923 36.1699 158.463 36.4238C158.463 36.3652 158.466 36.3132 158.473 36.2676C158.505 36.1439 158.613 36.082 158.795 36.082V37.8496H158.414C158.408 37.498 158.323 37.1953 158.16 36.9414C157.893 36.5378 157.493 36.3359 156.959 36.3359C156.822 36.3359 156.692 36.3555 156.568 36.3945C156.197 36.5182 156.012 36.7721 156.012 37.1562C156.012 37.306 156.044 37.4492 156.109 37.5859C156.246 37.8659 156.588 38.1491 157.135 38.4355C157.734 38.7546 158.076 38.9368 158.16 38.9824C158.753 39.3665 159.049 39.8288 159.049 40.3691ZM163.238 42.0977C162.717 42.0651 162.389 41.7689 162.252 41.209C162.219 41.3001 162.177 41.388 162.125 41.4727C161.865 41.8893 161.458 42.0977 160.904 42.0977C160.722 42.0977 160.556 42.0749 160.406 42.0293C159.898 41.8665 159.645 41.4954 159.645 40.916C159.651 40.0632 160.491 39.6204 162.164 39.5879V38.9531C162.164 38.7643 162.151 38.6016 162.125 38.4648C162.06 38.0938 161.874 37.9082 161.568 37.9082C161.477 37.9082 161.396 37.9245 161.324 37.957C161.214 38.0221 161.122 38.1849 161.051 38.4453C161.025 38.5365 161.005 38.6016 160.992 38.6406C160.895 38.9141 160.706 39.0508 160.426 39.0508C160.361 39.0508 160.299 39.041 160.24 39.0215C159.999 38.9564 159.879 38.7969 159.879 38.543C159.879 38.4323 159.908 38.3281 159.967 38.2305C160.195 37.8464 160.751 37.6543 161.637 37.6543C161.865 37.6543 162.076 37.6771 162.271 37.7227C163.027 37.9115 163.404 38.4128 163.404 39.2266V41.2676C163.404 41.5801 163.476 41.7428 163.619 41.7559C163.808 41.7493 163.922 41.5215 163.961 41.0723L164.215 41.082C164.195 41.2839 164.166 41.4499 164.127 41.5801C164.01 41.9251 163.714 42.0977 163.238 42.0977ZM161.412 41.6777C161.458 41.6777 161.51 41.668 161.568 41.6484C161.842 41.5443 162.04 41.2643 162.164 40.8086V39.8613C161.871 39.8743 161.63 39.9102 161.441 39.9688C161.09 40.099 160.914 40.3789 160.914 40.8086C160.921 41.375 161.087 41.6647 161.412 41.6777ZM166.9 41.7461C166.939 41.7461 166.975 41.7493 167.008 41.7559C167.092 41.7689 167.135 41.8503 167.135 42H164.41V41.7461C164.592 41.7461 164.739 41.7331 164.85 41.707C165.064 41.6484 165.172 41.4857 165.172 41.2188V35.9062H164.41V35.6523H166.412V41.7461H166.9ZM169.791 37.9082C169.27 37.9277 168.987 38.4779 168.941 39.5586L169.566 39.5879C169.827 39.6009 170.022 39.5846 170.152 39.5391C170.335 39.4674 170.426 39.2786 170.426 38.9727C170.419 38.276 170.208 37.9212 169.791 37.9082ZM171.617 40.9941C171.578 41.0983 171.526 41.1992 171.461 41.2969C171.129 41.8307 170.582 42.0977 169.82 42.0977C169.391 42.0977 169.007 42.0098 168.668 41.834C167.958 41.4629 167.604 40.8053 167.604 39.8613C167.604 39.2819 167.76 38.7969 168.072 38.4062C168.482 37.9049 169.055 37.6543 169.791 37.6543C170.195 37.6543 170.556 37.7227 170.875 37.8594C171.441 38.1133 171.725 38.5169 171.725 39.0703C171.725 39.181 171.705 39.2819 171.666 39.373C171.497 39.7376 170.888 39.9036 169.84 39.8711L168.941 39.8418C168.948 40.2194 168.98 40.5449 169.039 40.8184C169.189 41.4824 169.524 41.8145 170.045 41.8145C170.208 41.8145 170.367 41.7852 170.523 41.7266C170.914 41.5833 171.201 41.3132 171.383 40.916L171.617 40.9941ZM173.873 41.8242C174.309 41.8242 174.56 41.668 174.625 41.3555C174.632 41.3099 174.635 41.2676 174.635 41.2285C174.635 40.8965 174.426 40.6198 174.01 40.3984C173.919 40.3464 173.772 40.278 173.57 40.1934C173.082 39.9785 172.76 39.7799 172.604 39.5977C172.434 39.4023 172.35 39.1712 172.35 38.9043C172.35 38.3509 172.652 37.9766 173.258 37.7812C173.512 37.6966 173.795 37.6543 174.107 37.6543C174.615 37.6543 175.012 37.7454 175.299 37.9277C175.299 37.7324 175.357 37.625 175.475 37.6055C175.501 37.599 175.527 37.5957 175.553 37.5957V38.8164H175.24C175.214 38.224 174.892 37.9245 174.273 37.918C173.857 37.918 173.6 38.0547 173.502 38.3281C173.482 38.3932 173.473 38.4583 173.473 38.5234C173.473 38.8034 173.668 39.041 174.059 39.2363C174.137 39.2819 174.267 39.3438 174.449 39.4219C174.957 39.6497 175.296 39.8581 175.465 40.0469C175.66 40.2682 175.758 40.5319 175.758 40.8379C175.758 41.4043 175.465 41.7852 174.879 41.9805C174.638 42.0586 174.368 42.0977 174.068 42.0977C173.495 42.0977 173.014 41.9967 172.623 41.7949C172.623 41.9642 172.581 42.0618 172.496 42.0879C172.457 42.0944 172.411 42.0977 172.359 42.0977V40.6133H172.691C172.704 41.4141 173.098 41.8177 173.873 41.8242Z" fill="white"/>
<path d="M76.7344 64.5938V65.3594C76.7344 66.5365 77.0625 67.4844 77.7188 68.2031C78.375 68.9219 79.2135 69.2812 80.2344 69.2812H80.375L80.5156 69.2656C81.5677 69.2656 82.474 68.9479 83.2344 68.3125C83.9948 67.6667 84.375 66.7656 84.375 65.6094V65.0156C84.375 63.5052 84.0156 62.2865 83.2969 61.3594C82.5885 60.4323 81.6875 59.9688 80.5938 59.9688L80.4531 59.9844C79.2865 59.9844 78.375 60.4583 77.7188 61.4062C77.0625 62.3542 76.7344 63.4167 76.7344 64.5938ZM73.6719 65.1094V64.7031C73.6719 62.5573 74.3385 60.875 75.6719 59.6562C77.0156 58.4271 78.75 57.8125 80.875 57.8125C81.9583 57.8125 82.9323 58.0104 83.7969 58.4062C86.4219 59.625 87.7344 62.2448 87.7344 66.2656V67.125C87.7344 68.7708 87.526 70.3646 87.1094 71.9062C86.2865 74.9583 84.6771 77.0781 82.2812 78.2656C80.9688 78.9219 79.7031 79.25 78.4844 79.25H78.1406C77.3906 79.25 76.7708 79.1198 76.2812 78.8594C75.7917 78.5885 75.5469 78.2292 75.5469 77.7812C75.5469 77.3333 75.8646 76.9948 76.5 76.7656C76.6458 76.7135 77.0677 76.6458 77.7656 76.5625C78.474 76.4792 78.8594 76.4323 78.9219 76.4219C80.7344 76.0781 82.1146 75.1458 83.0625 73.625C83.4583 72.9896 83.6562 72.401 83.6562 71.8594C83.6562 71.1823 83.2865 70.8438 82.5469 70.8438L79.9219 71.0469C78.1406 71.0469 76.6719 70.5208 75.5156 69.4688C74.8906 68.9062 74.4271 68.2344 74.125 67.4531C73.8229 66.6615 73.6719 65.8802 73.6719 65.1094ZM94.4062 68.25V69.7031C94.4062 71.7552 94.75 73.5 95.4375 74.9375C96.125 76.3646 97.125 77.0833 98.4375 77.0938H98.6562C99.2396 77.0938 99.8021 76.9062 100.344 76.5312C100.885 76.1458 101.328 75.6146 101.672 74.9375C102.453 73.375 102.844 71.4115 102.844 69.0469V67.8125C102.844 65.5 102.5 63.6562 101.812 62.2812C101.125 60.9062 100.161 60.2188 98.9219 60.2188H98.7188C98.0312 60.2188 97.4062 60.4427 96.8438 60.8906C96.2812 61.3281 95.849 61.8646 95.5469 62.5C94.7865 64.0938 94.4062 66.0104 94.4062 68.25ZM98.5469 58.0156H99.4688C100.375 58.0156 101.271 58.25 102.156 58.7188C104.958 60.1979 106.359 63.401 106.359 68.3281L106.344 68.6562C106.344 71.8229 105.651 74.401 104.266 76.3906C103.599 77.3385 102.766 78.0625 101.766 78.5625C100.766 79.0625 99.7135 79.3125 98.6094 79.3125H98C97.0625 79.3125 96.1615 79.0729 95.2969 78.5938C93.526 77.625 92.3542 75.9688 91.7812 73.625C91.4271 72.2083 91.25 70.7917 91.25 69.375V68.3906C91.25 66.8281 91.4583 65.3698 91.875 64.0156C92.2917 62.651 92.8073 61.5573 93.4219 60.7344C94.0469 59.9115 94.8229 59.2552 95.75 58.7656C96.6875 58.2656 97.6198 58.0156 98.5469 58.0156ZM122.438 66.2969H122.797C123.307 66.2969 123.766 65.9948 124.172 65.3906C124.578 64.776 124.781 63.9948 124.781 63.0469V62.1719C124.781 61.2552 124.589 60.5104 124.203 59.9375C123.828 59.3646 123.339 59.0781 122.734 59.0781H122.641C122.068 59.0781 121.573 59.375 121.156 59.9688C120.75 60.5521 120.547 61.2344 120.547 62.0156C120.526 62.1615 120.516 62.2656 120.516 62.3281L120.5 62.7656V62.875L120.516 62.9844C120.516 63.849 120.682 64.6198 121.016 65.2969C121.359 65.9635 121.833 66.2969 122.438 66.2969ZM134.984 76.8281H135.266C135.859 76.8281 136.375 76.5104 136.812 75.875C137.26 75.2396 137.484 74.5417 137.484 73.7812L137.516 73.5625L137.531 73.2344V72.5781C137.531 71.5573 137.323 70.7865 136.906 70.2656C136.5 69.7344 136.062 69.4688 135.594 69.4688H135.312C134.615 69.4688 134.073 69.8542 133.688 70.625C133.302 71.3958 133.109 72.2865 133.109 73.2969V73.5156C133.109 74.4948 133.276 75.2917 133.609 75.9062C133.953 76.5208 134.411 76.8281 134.984 76.8281ZM122.938 68.3906H122.422C121.297 68.3906 120.328 67.9844 119.516 67.1719C118.703 66.3594 118.297 65.2812 118.297 63.9375L118.266 63.5938V62.8906C118.266 61.2969 118.745 59.9896 119.703 58.9688C120.661 57.9375 121.781 57.4219 123.062 57.4219H123.578C124.786 57.4219 125.781 57.875 126.562 58.7812C127.344 59.6771 127.734 60.8229 127.734 62.2188V62.9219C127.734 64.5156 127.255 65.8281 126.297 66.8594C125.339 67.8802 124.219 68.3906 122.938 68.3906ZM133.125 59.125C133.854 57.9479 134.547 57.3594 135.203 57.3594C135.859 57.3594 136.188 57.5365 136.188 57.8906C136.188 58.0365 136.031 58.4115 135.719 59.0156C133.583 63.151 130.005 69.2604 124.984 77.3438C124.349 78.3646 123.703 78.875 123.047 78.875C122.391 78.875 122.062 78.6979 122.062 78.3438C122.062 78.1562 122.219 77.7812 122.531 77.2188C125.927 71.0625 129.458 65.0312 133.125 59.125ZM135.641 78.8125H135.125C133.958 78.8125 132.974 78.349 132.172 77.4219C131.37 76.4948 130.969 75.2396 130.969 73.6562V73.1406C130.99 72.9115 131 72.7396 131 72.625C131 71.4479 131.448 70.3802 132.344 69.4219C133.24 68.4531 134.328 67.9688 135.609 67.9688H135.953C137.255 67.9688 138.292 68.4583 139.062 69.4375C139.844 70.4062 140.234 71.5885 140.234 72.9844V73.6875C140.234 75.1771 139.786 76.4062 138.891 77.375C138.005 78.3333 136.922 78.8125 135.641 78.8125Z" fill="white"/>
</g>
<defs>
<radialGradient id="paint0_radial_1_8" cx="0" cy="0" r="1" gradientUnits="userSpaceOnUse" gradientTransform="translate(105.132 74.7734) rotate(-7.48089) scale(98.4747 46.6817)">
<stop offset="0.11" stop-color="#FE8806"/>
<stop offset="0.17" stop-color="#FE9D31"/>
<stop offset="0.25" stop-color="#FEB361"/>
<stop offset="0.34" stop-color="#FFC88B"/>
<stop offset="0.42" stop-color="#FFD9AF"/>
<stop offset="0.52" stop-color="#FFE7CC"/>
<stop offset="0.61" stop-color="#FFF1E3"/>
<stop offset="0.72" stop-color="#FFF9F3"/>
<stop offset="0.84" stop-color="#FFFEFC"/>
<stop offset="1" stop-color="white"/>
</radialGradient>
<clipPath id="clip0_1_8">
<rect width="209" height="134" fill="white"/>
</clipPath>
</defs>
</svg>
