<svg width="32" height="32" viewBox="0 0 32 32" fill="none" xmlns="http://www.w3.org/2000/svg">
<path d="M10.954 1.50473C12.686 0.55918 14.722 0.18141 16.676 0.46121C18.855 0.75586 20.904 1.87434 22.348 3.5309C23.726 5.09098 24.553 7.1238 24.654 9.2027C24.766 11.2563 24.178 13.3404 23 15.0274C22.246 16.1125 21.262 17.0395 20.124 17.7126C20.018 17.7779 19.889 17.838 19.864 17.9739C19.103 20.0846 17.25 21.7538 15.074 22.2979C14.433 22.4663 13.768 22.5264 13.106 22.5227C11.655 22.522 10.204 22.5212 8.753 22.5227C8.75 21.4339 8.752 20.3452 8.752 19.2564C10.3 19.2549 11.848 19.2586 13.396 19.2549C14.496 19.2475 15.574 18.7138 16.251 17.847C16.826 17.1322 17.095 16.2052 17.061 15.2938C12.646 15.2923 8.23 15.2931 3.8142 15.2938C3.7964 19.5978 3.7793 23.9025 3.7615 28.2064C10.342 28.2079 16.921 28.2064 23.501 28.2071C24.191 28.2012 24.901 28.2598 25.563 28.0261C27.011 27.5748 28.085 26.1602 28.129 24.6439C28.159 23.0809 28.166 21.5178 28.185 19.9548C26.458 19.9525 24.73 19.9555 23.002 19.9533C23.001 18.8675 23.002 17.7816 23.002 16.6951C25.813 16.6906 28.626 16.6943 31.437 16.6936C31.424 18.8482 31.408 21.0027 31.395 23.1566C31.376 24.1029 31.439 25.0618 31.222 25.991C30.866 27.6334 29.889 29.1304 28.531 30.1198C27.343 31.0007 25.867 31.4772 24.388 31.472C16.429 31.4728 8.469 31.4743 0.510002 31.4713C0.528602 24.9905 0.544198 18.509 0.562698 12.0275C2.505 12.0267 4.4466 12.0282 6.3881 12.0275C5.905 10.1111 6.0237 8.0427 6.7681 6.20945C7.5608 4.21742 9.07 2.52449 10.954 1.50473ZM12.13 4.59445C11.045 5.28395 10.196 6.33191 9.741 7.5335C9.193 8.9689 9.212 10.6173 9.816 12.0319C13.312 12.0215 16.809 12.0297 20.306 12.0282C20.306 12.4193 20.306 12.8105 20.306 13.2023C21.224 11.908 21.602 10.2477 21.334 8.6839C21.096 7.2292 20.3 5.87547 19.146 4.95887C18.155 4.16176 16.906 3.69566 15.636 3.64223C14.406 3.58805 13.164 3.92797 12.13 4.59445Z" fill="#EE7036"/>
</svg>
